<?xml version="1.0" encoding="UTF-8" standalone="no"?>
<svg width="30px" height="22px" viewBox="0 0 30 22" version="1.1" xmlns="http://www.w3.org/2000/svg" xmlns:xlink="http://www.w3.org/1999/xlink">
    <!-- Generator: Sketch 40.3 (33839) - http://www.bohemiancoding.com/sketch -->
    <title>Menu</title>
    <desc>Created with Sketch.</desc>
    <defs></defs>
    <g id="Welcome" stroke="none" stroke-width="1" fill="none" fill-rule="evenodd">
        <g id="Frontpage" transform="translate(-20.000000, -21.000000)" fill="#FFFFFF">
            <g id="Menu" transform="translate(20.000000, 21.000000)">
                <path d="M0,1.50010002 C0.835770012,1.50010002 1.50010002,0.835770012 1.50010002,0 L28.5019004,0 C28.5019004,0.835770012 29.1662304,1.50010002 30.0020004,1.50010002 L30.0020004,2.78590004 C29.1662304,2.78590004 28.5019004,3.45023005 28.5019004,4.28600006 L1.50010002,4.28600006 C1.50010002,3.45023005 0.835770012,2.78590004 0,2.78590004 L0,1.50010002 L0,1.50010002 Z" id="Shape"></path>
                <path d="M0,10.0001 C0.835770012,10.0001 1.50010002,9.33577001 1.50010002,8.5 L28.5019004,8.5 C28.5019004,9.33577001 29.1662304,10.0001 30.0020004,10.0001 L30.0020004,11.2859 C29.1662304,11.2859 28.5019004,11.95023 28.5019004,12.7860001 L1.50010002,12.7860001 C1.50010002,11.95023 0.835770012,11.2859 0,11.2859 L0,10.0001 L0,10.0001 Z" id="Shape"></path>
                <path d="M0,18.5001 C0.835770012,18.5001 1.50010002,17.83577 1.50010002,17 L28.5019004,17 C28.5019004,17.83577 29.1662304,18.5001 30.0020004,18.5001 L30.0020004,19.7859 C29.1662304,19.7859 28.5019004,20.45023 28.5019004,21.2860001 L1.50010002,21.2860001 C1.50010002,20.45023 0.835770012,19.7859 0,19.7859 L0,18.5001 L0,18.5001 Z" id="Shape"></path>
            </g>
        </g>
    </g>
</svg>