<?xml version="1.0" encoding="UTF-8" standalone="no"?>
<svg width="32px" height="28px" viewBox="0 0 32 28" version="1.1" xmlns="http://www.w3.org/2000/svg" xmlns:xlink="http://www.w3.org/1999/xlink">
    <!-- Generator: Sketch 40.3 (33839) - http://www.bohemiancoding.com/sketch -->
    <title>Page 1</title>
    <desc>Created with Sketch.</desc>
    <defs>
        <polygon id="path-1" points="15.7740042 28 0 28 0 0.358 31.548 0.358 31.548 28 15.7740042 28 8.392779e-06 28 8.392779e-06 0.357616633 31.5483916 0.357616633 31.5483916 28 15.7740042 28"></polygon>
    </defs>
    <g id="Welcome" stroke="none" stroke-width="1" fill="none" fill-rule="evenodd">
        <g id="Frontpage" transform="translate(-496.000000, -19.000000)">
            <g id="Page-1" transform="translate(496.000000, 18.000000)">
                <path d="M18.2392,9.9524 C18.3392,10.8724 19.0992,11.5724 20.0292,11.5724 L20.1292,11.5724 C21.3592,11.4524 21.5092,11.3124 22.6292,11.1324 C22.8992,11.2324 23.1792,11.2924 23.4592,11.3124 C25.2692,11.4024 26.6792,12.8924 26.6792,14.7024 C26.6792,15.2524 26.5392,15.7924 26.2892,16.2824 C25.9392,16.9324 25.8692,17.6824 26.0892,18.3924 C26.3192,19.1024 26.8092,19.6724 27.4692,20.0024 C28.8192,20.6924 29.5392,22.0924 29.2992,23.5924 C29.0492,25.2124 27.5292,26.4424 25.7692,26.4424 L5.7792,26.4424 C4.0192,26.4424 2.4992,25.2224 2.2492,23.5924 C2.0092,22.1024 2.7292,20.6924 4.0892,20.0024 C4.2292,19.9324 4.3692,19.8424 4.4892,19.7524 C7.2292,20.2124 8.7892,20.1024 10.1792,20.0024 L10.5992,19.9724 C11.0792,19.9424 11.5192,19.7324 11.8392,19.3724 C12.1492,19.0024 12.3092,18.5424 12.2792,18.0624 C12.2192,17.0824 11.3592,16.3324 10.3692,16.3824 L9.8392,16.4224 C8.6792,16.5124 7.4792,16.6024 5.2292,16.2224 C4.8892,15.5224 4.7792,14.9424 4.8792,14.4524 C5.1892,12.9524 5.9592,12.0224 7.2392,11.6224 C7.8892,11.4124 8.5792,11.2224 9.2492,11.0324 C13.2092,9.9224 18.0792,8.5524 19.4092,3.6124 C20.3392,4.7924 20.8592,6.2424 20.8892,7.7524 C20.2392,7.8424 20.5592,7.9224 19.8592,7.9824 C19.3792,8.0324 18.9492,8.2624 18.6492,8.6324 C18.3392,9.0024 18.1992,9.4724 18.2392,9.9524 Z" id="Fill-1" fill="#6A3D13"></path>
                <g id="Group-5" transform="translate(0.000000, 0.642400)">
                    <mask id="mask-2" fill="white">
                        <use xlink:href="#path-1"></use>
                    </mask>
                    <g id="Clip-4"></g>
                    <path d="M2.2492,22.95 C2.4992,24.58 4.0192,25.8 5.7792,25.8 L25.7692,25.8 C27.5292,25.8 29.0492,24.57 29.2992,22.95 C29.5392,21.45 28.8192,20.05 27.4692,19.36 C26.8092,19.03 26.3192,18.46 26.0892,17.75 C25.8692,17.04 25.9392,16.29 26.2892,15.64 C26.5392,15.15 26.6792,14.61 26.6792,14.06 C26.6792,12.25 25.2692,10.76 23.4592,10.67 C23.1792,10.65 22.8992,10.59 22.6292,10.49 C21.5092,10.67 21.3592,10.81 20.1292,10.93 L20.0292,10.93 C19.0992,10.93 18.3392,10.23 18.2392,9.31 C18.1992,8.83 18.3392,8.36 18.6492,7.99 C18.9492,7.62 19.3792,7.39 19.8592,7.34 C20.5592,7.28 20.2392,7.2 20.8892,7.11 C20.8592,5.6 20.3392,4.15 19.4092,2.97 C18.0792,7.91 13.2092,9.28 9.2492,10.39 C8.5792,10.58 7.8892,10.77 7.2392,10.98 C5.9592,11.38 5.1892,12.31 4.8792,13.81 C4.7792,14.3 4.8892,14.88 5.2292,15.58 C7.4792,15.96 8.6792,15.87 9.8392,15.78 L10.3692,15.74 C11.3592,15.69 12.2192,16.44 12.2792,17.42 C12.3092,17.9 12.1492,18.36 11.8392,18.73 C11.5192,19.09 11.0792,19.3 10.5992,19.33 L10.1792,19.36 C8.7892,19.46 7.2292,19.57 4.4892,19.11 C4.3692,19.2 4.2292,19.29 4.0892,19.36 C2.7292,20.05 2.0092,21.46 2.2492,22.95 M3.3292,16.69 C2.7092,15.48 2.5192,14.39 2.7292,13.36 C3.1992,11.07 4.5292,9.52 6.5792,8.88 C7.2492,8.67 7.9692,8.47 8.6492,8.28 C12.5692,7.18 16.6192,6.04 17.4092,1.87 C17.5392,1.18 18.0292,0.63 18.6992,0.43 C19.3592,0.24 20.0692,0.43 20.5492,0.93 C22.3292,2.79 23.2492,5.33 23.0792,7.9 L23.1092,8.26 L23.3392,8.39 C23.4192,8.44 23.4992,8.46 23.5792,8.47 C26.5492,8.63 28.8792,11.08 28.8792,14.06 C28.8792,14.96 28.6592,15.87 28.2292,16.67 C28.1592,16.81 28.1392,16.94 28.1892,17.08 C28.2392,17.23 28.3192,17.33 28.4592,17.4 C30.6492,18.5 31.8592,20.87 31.4792,23.3 C31.0492,25.98 28.5992,28 25.7692,28 L5.7792,28 C2.9492,28 0.4992,25.98 0.0692,23.3 C-0.3108,20.88 0.8992,18.51 3.0892,17.4 C3.1592,17.37 3.2092,17.32 3.2692,17.25 L3.4192,17.06 L3.3592,16.8 C3.3492,16.75 3.3392,16.72 3.3292,16.69" id="Fill-3" fill="#FFFFFF"></path>
                </g>
            </g>
        </g>
    </g>
</svg>