<?xml version="1.0" encoding="UTF-8" standalone="no"?>
<svg width="35px" height="32px" viewBox="0 0 35 32" version="1.1" xmlns="http://www.w3.org/2000/svg" xmlns:xlink="http://www.w3.org/1999/xlink">
    <!-- Generator: Sketch 40.3 (33839) - http://www.bohemiancoding.com/sketch -->
    <title>Combined Shape</title>
    <desc>Created with Sketch.</desc>
    <defs></defs>
    <g id="Symbols" stroke="none" stroke-width="1" fill="none" fill-rule="evenodd">
        <g id="HeaderDesktop" transform="translate(-872.000000, -14.000000)" fill="#FFFFFF">
            <path d="M875,41 L878.021884,41 C878.12748,39.2166397 878.653402,38.12901 881.086856,37.5679607 C884.359228,36.8123194 887.589291,36.1366286 886.036322,33.2783196 C881.435589,24.8048086 884.723827,20 889.666138,20 C894.512322,20 897.884554,24.6262421 893.295954,33.2770753 C891.787782,36.1195186 894.901186,36.7952094 898.24542,37.5667163 C900.679027,38.127801 901.204862,39.2155325 901.309505,41 L904,41 L904,19 L875,19 L875,29.6166992 L875,41 Z M873.5,46 L905.5,46 L907,46 L907,16.5 L907,14 L872,14 L872,16.5 L872,46 L873.5,46 Z" id="Combined-Shape"></path>
        </g>
    </g>
</svg>
