<?xml version="1.0" encoding="UTF-8" standalone="no"?>
<svg width="30px" height="30px" viewBox="0 0 30 30" version="1.1" xmlns="http://www.w3.org/2000/svg" xmlns:xlink="http://www.w3.org/1999/xlink">
    <!-- Generator: Sketch 40.3 (33839) - http://www.bohemiancoding.com/sketch -->
    <title>Group 3</title>
    <desc>Created with Sketch.</desc>
    <defs></defs>
    <g id="Welcome" stroke="none" stroke-width="1" fill="none" fill-rule="evenodd">
        <g id="Frontpage" transform="translate(-974.000000, -17.000000)" fill="#FFFFFF">
            <g id="Group-3" transform="translate(974.000000, 17.000000)">
                <path d="M2.143,0 L0,2.143 L0,23.571 L0,25.714 L0,27.857 L2.143,30 L27.857,30 L30,27.857 L30,2.143 L27.857,0 L2.143,0 Z M2.143,23.571 L2.143,2.143 L27.857,2.143 L27.857,23.571 L27.857,27.857 L2.143,27.857 L2.143,23.571 Z" id="Page-1"></path>
                <path d="M23.9574561,23.3505867 C20.6607894,22.5900533 17.5916694,21.9239733 19.0783894,19.12196 C23.6017228,10.5941733 20.2774561,6.03373333 15.5002028,6.03373333 C10.6281894,6.03373333 7.38672276,10.7702 11.9220161,19.1231867 C13.4528961,21.94084 10.2687761,22.60692 7.04294943,23.3518133 C4.37740276,23.9663733 4.03362943,25.2218667 4.00020276,27.3470667 C3.98578943,28.2597067 4.74172276,29 5.65466943,29 L25.3435894,29 C26.2574561,29 27.0133894,28.25848 26.9989761,27.3470667 C26.9667761,25.22064 26.6230028,23.9651467 23.9574561,23.3505867 L23.9574561,23.3505867 Z" id="Page-1"></path>
            </g>
        </g>
    </g>
</svg>